<svg width="80" height="48" viewBox="0 0 80 48" fill="none" xmlns="http://www.w3.org/2000/svg">
<rect width="80" height="48" rx="2" fill="#016FD0"/>
<path d="M48.9714 18.7329C48.9714 18.7329 48.9192 18.6732 48.8894 18.606C48.852 18.509 48.7998 18.3374 48.7998 18.0538C48.7998 17.6433 48.9267 17.4418 49.0013 17.3672C49.061 17.3075 49.1505 17.2553 49.3073 17.2553H50.7476L50.0461 18.8896H49.5908C49.1804 18.8896 49.0162 18.7851 48.9714 18.7403V18.7329ZM9.26249 12.8L4.7998 23.1881H9.84458L10.464 21.6284H12.2774L12.8894 23.1881C23.2103 23.1881 27.6431 23.1881 38.0013 23.1881V21.718L39.2401 23.1881H45.1282H45.8744V22.106C46.1729 22.3672 46.5088 22.5911 46.8819 22.7702C47.2923 22.9642 47.7401 23.0911 48.2028 23.1508L48.1879 23.1956H53.2326L53.852 21.6359H55.6655L56.2774 23.1956H61.367H62.867V21.3L64.0908 23.1956H68.4938V12.8H63.9416V14.5687L62.8073 12.8H58.3222V16.0762L56.9192 12.8C56.5759 12.8 48.9117 12.8 49.3968 12.8C48.5311 12.8 47.7326 12.9493 47.0311 13.2627C46.6058 13.4493 46.2252 13.6881 45.8894 13.9792V12.8C39.3894 12.8 30.8819 12.8 21.964 12.8L21.1132 15.2254L20.2476 12.8224L14.9341 12.8V16.0911L13.5162 12.8H9.26249ZM19.6356 26.412V36.7926H30.5983L31.7401 35.2553L32.9117 36.7926C33.5908 36.7926 30.4565 36.7926 39.5386 36.7926V34.3374C39.964 34.3075 41.4789 34.5239 42.867 33.6583V36.7926H47.4192V35.3224L48.658 36.7926C49.4341 36.7926 71.7476 36.7926 70.5535 36.7926C72.9043 36.7926 74.3894 35.1806 74.3894 33.0165C74.3894 31.9717 74.0237 30.9866 73.2177 30.315L75.0461 26.412C74.6729 26.412 31.1282 26.412 33.0386 26.412L31.7849 28.0239L30.5386 26.412H19.6282H19.6356Z" fill="white"/>
<path d="M10.1211 14.106L6.77783 21.8895H8.95694L9.57634 20.3298H13.1659L13.7778 21.8895H16.0017L12.6584 14.106H10.1211ZM11.3599 15.9194L12.4569 18.6433H10.2629L11.3599 15.9194Z" fill="#016FD0"/>
<path d="M16.232 21.8895V14.106L19.329 14.1209L21.1275 19.1358L22.8812 14.106H25.9484V21.8821H24.0006V16.1507L21.9409 21.8821H20.232L18.1648 16.1507V21.8821H16.217L16.232 21.8895Z" fill="#016FD0"/>
<path d="M27.2842 21.8895V14.106H33.6275V15.8448H29.2469V17.1731H33.523V18.8074H29.2469V20.188H33.6275V21.8746H27.2842V21.8895Z" fill="#016FD0"/>
<path d="M34.7544 14.106V21.8821H36.7022V19.1209H37.5231L39.8514 21.8821H42.2245L39.6648 19.0164C40.7171 18.9269 41.7992 18.0239 41.7992 16.6283C41.7992 14.994 40.5156 14.106 39.0828 14.106H34.7544ZM36.7022 15.8448H38.926C39.4559 15.8448 39.8439 16.2627 39.8439 16.6657C39.8439 17.1806 39.3439 17.4866 38.9484 17.4866H36.6947V15.8522L36.7022 15.8448Z" fill="#016FD0"/>
<path d="M44.5835 21.8895H42.5984V14.106H44.5835V21.8821V21.8895Z" fill="#016FD0"/>
<path d="M49.2924 21.8894H48.8671C46.7924 21.8894 45.5312 20.2551 45.5312 18.0312C45.5312 15.8073 46.7775 14.1133 49.3969 14.1133H51.5462V15.9566H49.3148C48.2551 15.9566 47.5014 16.7849 47.5014 18.0536C47.5014 19.561 48.3596 20.1954 49.5984 20.1954H50.1133L49.2924 21.8969V21.8894Z" fill="#016FD0"/>
<path d="M53.5244 14.106L50.1812 21.8821H52.3603L52.9797 20.3224H56.5692L57.1812 21.8821H59.405L56.0617 14.106H53.5244ZM54.7632 15.9194L55.8603 18.6433H53.6662L54.7632 15.9194Z" fill="#016FD0"/>
<path d="M59.6276 21.8895V14.106H62.0977L65.2544 18.994V14.106H67.2022V21.8821H64.8067L61.5679 16.8672V21.8821H59.6201L59.6276 21.8895Z" fill="#016FD0"/>
<path d="M20.9419 35.5016V27.7255H27.2852V29.4643H22.9046V30.7926H27.1807V32.427H22.9046V33.8076H27.2852V35.4941H20.9419V35.5016Z" fill="#016FD0"/>
<path d="M52.0312 35.5016V27.7255H58.3745V29.4643H53.9939V30.7926H58.2551V32.427H53.9939V33.8076H58.3745V35.4941H52.0312V35.5016Z" fill="#016FD0"/>
<path d="M27.5307 35.5016L30.6202 31.6583L27.4561 27.718H29.9038L31.7844 30.1509L33.6725 27.718H36.0232L32.9038 31.6061L36.0008 35.4941H33.5531L31.7247 33.0986L29.9411 35.4941H27.5232L27.5307 35.5016Z" fill="#016FD0"/>
<path d="M36.2401 27.718V35.4942H38.2327V33.0389H40.2774C42.0088 33.0389 43.3222 32.121 43.3222 30.33C43.3222 28.8524 42.2924 27.7106 40.5312 27.7106H36.2327L36.2401 27.718ZM38.2327 29.4792H40.3894C40.9491 29.4792 41.3521 29.8225 41.3521 30.3748C41.3521 30.8971 40.9565 31.2703 40.3894 31.2703H38.2401V29.4792H38.2327Z" fill="#016FD0"/>
<path d="M44.1733 27.718V35.4941H46.1211V32.7329H46.942L49.2704 35.4941H51.6435L49.0838 32.6285C50.136 32.5389 51.2181 31.6359 51.2181 30.2404C51.2181 28.6061 49.9345 27.718 48.5017 27.718H44.1733ZM46.1211 29.4568H48.345C48.8748 29.4568 49.2629 29.8747 49.2629 30.2777C49.2629 30.7926 48.7629 31.0986 48.3674 31.0986H46.1136V29.4643L46.1211 29.4568Z" fill="#016FD0"/>
<path d="M59.2772 35.5016V33.815H63.1652C63.7399 33.815 63.9936 33.5016 63.9936 33.1657C63.9936 32.8299 63.7473 32.509 63.1652 32.509H61.404C59.8742 32.509 59.0234 31.5762 59.0234 30.1807C59.0234 28.9344 59.7996 27.7329 62.0757 27.7329H65.8593L65.0384 29.4866H61.7622C61.1354 29.4866 60.9413 29.815 60.9413 30.1284C60.9413 30.4419 61.1802 30.8075 61.6578 30.8075H63.501C65.2025 30.8075 65.9413 31.7777 65.9413 33.0389C65.9413 34.3971 65.1204 35.5165 63.404 35.5165H59.2622L59.2772 35.5016Z" fill="#016FD0"/>
<path d="M66.4193 35.5016V33.815H70.3073C70.8819 33.815 71.1357 33.5016 71.1357 33.1657C71.1357 32.8299 70.8894 32.509 70.3073 32.509H68.5461C67.0163 32.509 66.1655 31.5762 66.1655 30.1807C66.1655 28.9344 66.9416 27.7329 69.2178 27.7329H73.0013L72.1805 29.4866H68.9043C68.2775 29.4866 68.0834 29.815 68.0834 30.1284C68.0834 30.4419 68.3222 30.8075 68.7999 30.8075H70.6431C72.3446 30.8075 73.0834 31.7777 73.0834 33.0389C73.0834 34.3971 72.2625 35.5165 70.5461 35.5165H66.4043L66.4193 35.5016Z" fill="#016FD0"/>
</svg>
