<svg width="80" height="48" viewBox="0 0 80 48" fill="none" xmlns="http://www.w3.org/2000/svg">
<rect width="80" height="48" rx="2" fill="white"/>
<path d="M23.3086 16.1444C23.9508 15.3414 24.3866 14.2633 24.2716 13.1615C23.3316 13.2082 22.1844 13.7815 21.5203 14.5851C20.924 15.2733 20.3962 16.3966 20.5338 17.4521C21.589 17.5437 22.6433 16.9248 23.3086 16.1444Z" fill="black"/>
<path d="M24.2597 17.6582C22.7273 17.567 21.4243 18.5277 20.6924 18.5277C19.9602 18.5277 18.8395 17.7042 17.6274 17.7264C16.0497 17.7496 14.5859 18.6413 13.7853 20.0596C12.1386 22.8969 13.3507 27.1056 14.952 29.4164C15.7297 30.5596 16.6668 31.8184 17.9017 31.7732C19.0684 31.7274 19.5258 31.0179 20.944 31.0179C22.3612 31.0179 22.7731 31.7732 24.0082 31.7503C25.289 31.7274 26.0897 30.6065 26.8673 29.4621C27.7594 28.1589 28.1246 26.9005 28.1476 26.8315C28.1246 26.8086 25.6778 25.8702 25.6551 23.0565C25.632 20.7006 27.5761 19.58 27.6676 19.5105C26.5698 17.8872 24.8544 17.7042 24.2597 17.6582Z" fill="black"/>
<path d="M37.6033 14.4699C40.9342 14.4699 43.2535 16.7651 43.2535 20.1069C43.2535 23.4606 40.8864 25.7678 37.5198 25.7678H33.832V31.6308H31.1675V14.4698L37.6033 14.4699ZM33.832 23.5319H36.8893C39.2091 23.5319 40.5294 22.2834 40.5294 20.1188C40.5294 17.9545 39.2091 16.7176 36.9012 16.7176H33.832V23.5319Z" fill="black"/>
<path d="M43.9497 28.0751C43.9497 25.8867 45.6271 24.5429 48.6013 24.3764L52.0271 24.1743V23.2111C52.0271 21.8196 51.0873 20.9871 49.5173 20.9871C48.0299 20.9871 47.102 21.7005 46.8762 22.8186H44.4495C44.5922 20.5588 46.5192 18.8939 49.6123 18.8939C52.6457 18.8939 54.5847 20.4994 54.5847 23.0087V31.6308H52.1221V29.5734H52.0629C51.3374 30.9649 49.755 31.8449 48.1135 31.8449C45.6628 31.8449 43.9497 30.3226 43.9497 28.0751ZM52.0271 26.9453V25.9582L48.9459 26.1484C47.4113 26.2555 46.5431 26.9334 46.5431 28.0037C46.5431 29.0977 47.4471 29.8113 48.8271 29.8113C50.6233 29.8113 52.0271 28.5744 52.0271 26.9453Z" fill="black"/>
<path d="M56.9096 36.2333V34.1521C57.0996 34.1996 57.5278 34.1996 57.7421 34.1996C58.9316 34.1996 59.5741 33.7002 59.9665 32.4158C59.9665 32.392 60.1927 31.6547 60.1927 31.6428L55.6724 19.1199H58.4557L61.6204 29.3H61.6677L64.8324 19.1199H67.5446L62.8572 32.2848C61.787 35.3176 60.5497 36.2927 57.9564 36.2927C57.7421 36.2927 57.0996 36.2689 56.9096 36.2333Z" fill="black"/>
</svg>
