<svg width="80" height="48" viewBox="0 0 80 48" fill="none" xmlns="http://www.w3.org/2000/svg">
<rect width="80" height="48" rx="2" fill="white"/>
<path d="M8.67816 18.0002H5.6001V28.7577H8.66245C12.2902 28.7577 14.4574 26.2215 14.4574 23.3868C14.4574 20.2146 12.086 18.0002 8.67816 18.0002ZM11.128 26.0802C9.95021 27.1402 8.0971 26.8968 7.68878 26.936V19.822C8.52111 19.8926 9.93451 19.6178 11.128 20.6935C12.7063 22.0991 12.6435 24.7374 11.128 26.0802Z" fill="#231F20"/>
<path d="M17.5201 18.0002H15.4236V28.7577H17.5201V18.0002Z" fill="#231F20"/>
<path d="M21.0215 20.78C21.0215 19.6572 22.9139 18.9269 24.2802 20.4581L25.3795 19.0211C22.804 16.7676 18.8622 17.8747 18.8622 20.9135C18.8622 24.4863 23.5892 23.3477 23.5892 25.5934C23.5892 27.423 20.7545 27.7842 19.6709 25.6798L18.3125 26.9833C19.2783 28.4045 20.4404 29.0327 22.0344 29.0327C24.2174 29.0327 25.7485 27.58 25.7485 25.4992C25.7485 21.7851 21.0215 22.5939 21.0215 20.7879V20.78Z" fill="#231F20"/>
<path d="M26.408 23.3868C26.408 27.4935 30.601 30.3125 34.7156 28.373V25.8995C32.2735 28.3416 28.5673 26.7554 28.5673 23.3633C28.5673 20.2616 32.0458 18.2672 34.7156 20.882V18.4164C30.7345 16.3984 26.408 19.3194 26.408 23.3868Z" fill="#231F20"/>
<path d="M51.362 25.2321L48.496 18.0002H46.2031L50.7653 29.0404H51.896L56.5445 18.0002H54.2752L51.362 25.2321Z" fill="#231F20"/>
<path d="M57.4954 28.7656H63.4473V26.9439H59.5919V24.0386H63.306V22.2169H59.5919V19.822H63.4473V18.0002H57.4954V28.7656Z" fill="#231F20"/>
<path d="M71.7632 21.1804C71.7632 19.1624 70.3734 18.0002 67.9549 18.0002H64.8455V28.7577H66.942V24.4312H67.2168L70.1221 28.7577H72.7055L69.3212 24.227C70.8995 23.9051 71.7711 22.8215 71.7711 21.1804H71.7632ZM66.942 22.955V19.6963C67.2639 19.7591 69.6039 19.2409 69.6039 21.2903C69.6039 23.3397 67.2247 22.8922 66.942 22.955Z" fill="#231F20"/>
<path d="M72.7839 17.7646C72.3285 17.7646 71.9595 18.1337 71.9595 18.5891C71.9595 19.0446 72.3285 19.4136 72.7839 19.4136C73.2394 19.4136 73.6006 19.0446 73.6006 18.5891C73.6006 18.1337 73.2315 17.7646 72.7839 17.7646ZM72.7839 19.2644C72.4227 19.2644 72.1244 18.966 72.1244 18.5891C72.1244 18.2122 72.4149 17.9138 72.7839 17.9138C73.153 17.9138 73.4357 18.2201 73.4357 18.5891C73.4357 18.9582 73.1452 19.2644 72.7839 19.2644Z" fill="#231F20"/>
<path d="M73.0971 18.4085C73.0971 18.22 72.9636 18.1179 72.7359 18.1179H72.4297V19.0602H72.6574V18.6911L72.9244 19.0602H73.1992L72.8851 18.6676C73.0186 18.6283 73.0893 18.5341 73.0893 18.4006L73.0971 18.4085ZM72.6967 18.5341H72.6574V18.2907H72.6967C72.8066 18.2907 72.8694 18.3299 72.8694 18.4085C72.8694 18.487 72.8144 18.5341 72.6967 18.5341Z" fill="#231F20"/>
<path d="M46.8548 23.4183C46.8548 26.5828 44.2949 29.1426 41.1305 29.1426C37.9661 29.1426 35.4062 26.5828 35.4062 23.4183C35.4062 20.2539 37.9739 17.6941 41.1305 17.6941C44.2871 17.6941 46.8548 20.2539 46.8548 23.4183Z" fill="url(#paint0_linear_4192_1678)"/>
<defs>
<linearGradient id="paint0_linear_4192_1678" x1="44.0594" y1="28.004" x2="40.1019" y2="21.8008" gradientUnits="userSpaceOnUse">
<stop stop-color="#F89F20"/>
<stop offset="0.25" stop-color="#F79A20"/>
<stop offset="0.53" stop-color="#F58C20"/>
<stop offset="0.62" stop-color="#F58720"/>
<stop offset="0.72" stop-color="#F48120"/>
<stop offset="1" stop-color="#F37521"/>
</linearGradient>
</defs>
</svg>
