<svg width="80" height="48" viewBox="0 0 80 48" fill="none" xmlns="http://www.w3.org/2000/svg">
<rect width="80" height="48" rx="2" fill="white"/>
<path d="M52.4796 34.2165C58.8425 31.5809 61.8641 24.2862 59.2285 17.9232C56.5929 11.5603 49.2981 8.53872 42.9352 11.1743C36.5722 13.8099 33.5506 21.1047 36.1863 27.4676C38.8219 33.8306 46.1166 36.8522 52.4796 34.2165Z" fill="#F79E1B"/>
<path d="M37.0655 34.2146C43.4284 31.579 46.45 24.2842 43.8144 17.9213C41.1788 11.5584 33.884 8.53677 27.5211 11.1724C21.1582 13.808 18.1366 21.1028 20.7722 27.4657C23.4078 33.8286 30.7026 36.8502 37.0655 34.2146Z" fill="#EB001B"/>
<path d="M35.2344 22.6941C35.2344 26.6734 37.0981 30.2066 39.998 32.4948C42.8979 30.2138 44.7616 26.6734 44.7616 22.6941C44.7616 18.7148 42.8979 15.1745 39.998 12.8934C37.0981 15.1745 35.2344 18.7148 35.2344 22.6941Z" fill="#FF5F00"/>
<path d="M27.0821 41.6623V39.5899C27.1324 38.9135 26.6215 38.3235 25.9451 38.2803C25.8948 38.2803 25.8372 38.2803 25.7868 38.2803C25.3191 38.2515 24.8802 38.4746 24.6283 38.8631C24.398 38.4818 23.9807 38.2587 23.5417 38.2803C23.1532 38.2587 22.7862 38.4458 22.5775 38.7696V38.3594H21.8579V41.6551H22.5847V39.8418C22.5271 39.4172 22.8222 39.0286 23.2467 38.9711C23.2971 38.9711 23.3474 38.9639 23.3906 38.9711C23.8655 38.9711 24.1102 39.2805 24.1102 39.8418V41.6767H24.837V39.849C24.7794 39.4244 25.0816 39.0358 25.5062 38.9783C25.5494 38.9783 25.5997 38.9711 25.6429 38.9783C26.1322 38.9783 26.3697 39.2877 26.3697 39.849V41.6839L27.0965 41.6695L27.0821 41.6623ZM37.7967 38.3666H36.6165V37.3664H35.8898V38.3666H35.2349V39.0215H35.9042V40.5398C35.9042 41.3025 36.1992 41.7631 37.0483 41.7631C37.3649 41.7631 37.6743 41.6767 37.9478 41.5112L37.7391 40.8996C37.5448 41.0147 37.3289 41.0795 37.1059 41.0867C36.7605 41.0867 36.6309 40.8636 36.6309 40.5326V39.0286H37.8038V38.3738L37.7967 38.3666ZM43.9131 38.2875C43.5533 38.2803 43.2223 38.4602 43.0424 38.7696V38.3666H42.33V41.6623H43.0496V39.813C43.0496 39.2661 43.2871 38.9639 43.7404 38.9639C43.8915 38.9639 44.0498 38.9927 44.1865 39.0502L44.4096 38.3594C44.2441 38.3019 44.0714 38.2731 43.8987 38.2731L43.9131 38.2875ZM34.6593 38.6329C34.2563 38.3882 33.7886 38.2731 33.3137 38.2875C32.4789 38.2875 31.9321 38.6904 31.9321 39.3453C31.9321 39.885 32.335 40.216 33.069 40.3167L33.4144 40.3671C33.8102 40.4246 33.9973 40.5254 33.9973 40.7125C33.9973 40.9643 33.7382 41.1154 33.2489 41.1154C32.8531 41.1298 32.4717 41.0075 32.1551 40.77L31.8097 41.3313C32.2271 41.6263 32.7308 41.7703 33.2345 41.7559C34.1844 41.7559 34.7384 41.3097 34.7384 40.6765C34.7384 40.0433 34.3067 39.7914 33.5871 39.6907L33.2417 39.6403C32.9323 39.5971 32.6804 39.5396 32.6804 39.3165C32.6804 39.0934 32.9179 38.9279 33.3065 38.9279C33.6734 38.9279 34.026 39.0286 34.3427 39.2085L34.6593 38.6257V38.6329ZM53.8721 38.2875C53.5123 38.2803 53.1813 38.4602 53.0014 38.7696V38.3666H52.289V41.6623H53.0086V39.813C53.0086 39.2661 53.2461 38.9639 53.6994 38.9639C53.8505 38.9639 54.0016 38.9927 54.1456 39.0502L54.3686 38.3594C54.2031 38.3019 54.0304 38.2731 53.8577 38.2731L53.8721 38.2875ZM44.6255 40.0145C44.5895 40.9355 45.3091 41.7055 46.2302 41.7415C46.2805 41.7415 46.3309 41.7415 46.3885 41.7415C46.8202 41.7631 47.2448 41.6263 47.5758 41.3457L47.2304 40.7628C46.9857 40.9499 46.6835 41.0579 46.3669 41.0579C45.784 41.0075 45.3523 40.4966 45.3954 39.9137C45.4386 39.3956 45.8488 38.9855 46.3669 38.9423C46.6763 38.9423 46.9785 39.0502 47.2304 39.2373L47.5758 38.6545C47.2448 38.381 46.8202 38.2371 46.3885 38.2587C45.4674 38.2083 44.6831 38.9063 44.6327 39.8274C44.6327 39.8778 44.6327 39.9281 44.6327 39.9857V40.0001L44.6255 40.0145ZM51.3464 40.0145V38.3738H50.6268V38.7768C50.3821 38.4602 49.9936 38.2803 49.5906 38.2947C48.6408 38.2947 47.8636 39.0646 47.8636 40.0217C47.8636 40.9787 48.6336 41.7487 49.5906 41.7487C49.9936 41.7631 50.3749 41.5832 50.6268 41.2665V41.6695H51.3464V40.0289V40.0145ZM48.6767 40.0145C48.7055 39.4676 49.1804 39.043 49.7273 39.079C50.2742 39.115 50.6988 39.5827 50.6628 40.1296C50.634 40.6549 50.1951 41.0651 49.6698 41.0651C49.1229 41.0651 48.6767 40.6333 48.6695 40.0864C48.6695 40.0577 48.6695 40.0361 48.6695 40.0073L48.6767 40.0145ZM40.0202 38.2875C39.0703 38.3019 38.3076 39.0862 38.3219 40.0361C38.3363 40.9859 39.1207 41.7487 40.0705 41.7343C40.567 41.7631 41.0564 41.5976 41.4377 41.2881L41.0923 40.7556C40.8189 40.9715 40.4807 41.0938 40.1353 41.101C39.6388 41.1442 39.207 40.7844 39.1495 40.2951H41.596V40.0217C41.596 38.9855 40.9556 38.2947 40.0274 38.2947H40.0202V38.2875ZM40.0202 38.9279C40.4735 38.9207 40.8477 39.2733 40.8549 39.7266H39.1279C39.1567 39.2661 39.5452 38.9135 40.0058 38.9279H40.0202ZM57.9953 40.0145V37.0426H57.3045V38.7696C57.0599 38.453 56.6713 38.2731 56.2683 38.2875C55.3185 38.2875 54.5413 39.0574 54.5413 40.0145C54.5413 40.9715 55.3113 41.7415 56.2683 41.7415C56.6713 41.7559 57.0527 41.576 57.3045 41.2594V41.6623H57.9953V40.0289V40.0145ZM59.1898 41.1802C59.233 41.1802 59.2762 41.1874 59.3193 41.2018C59.3625 41.2162 59.3985 41.245 59.4273 41.2737C59.4561 41.3025 59.4849 41.3385 59.4992 41.3745C59.5352 41.4536 59.5352 41.5472 59.4992 41.6263C59.4849 41.6623 59.4561 41.6983 59.4273 41.7271C59.3985 41.7559 59.3625 41.7775 59.3193 41.799C59.2762 41.8206 59.233 41.8278 59.1898 41.8278C59.0531 41.8278 58.938 41.7487 58.8804 41.6263C58.8444 41.5472 58.8444 41.4536 58.8804 41.3745C58.8948 41.3385 58.9236 41.3025 58.9524 41.2737C58.9811 41.245 59.0171 41.2234 59.0603 41.2018C59.1035 41.1874 59.1538 41.173 59.2042 41.1802H59.197H59.1898ZM59.1898 41.7631C59.1898 41.7631 59.2618 41.7631 59.2906 41.7415C59.3193 41.7271 59.3481 41.7127 59.3697 41.6839C59.4561 41.5832 59.4561 41.4392 59.3697 41.3385C59.3481 41.3169 59.3193 41.2953 59.2906 41.2809C59.2618 41.2665 59.2258 41.2594 59.1898 41.2594C59.1538 41.2594 59.1179 41.2665 59.0891 41.2809C59.0603 41.2953 59.0315 41.3097 59.0027 41.3385C58.9164 41.4392 58.9164 41.5832 59.0027 41.6839C59.0243 41.7055 59.0531 41.7271 59.0891 41.7415C59.1251 41.7559 59.161 41.7631 59.197 41.7631H59.1898ZM59.2114 41.3529C59.2114 41.3529 59.2762 41.3601 59.2978 41.3817C59.3194 41.3961 59.3337 41.4249 59.3265 41.4536C59.3265 41.4752 59.3194 41.4968 59.305 41.5184C59.2834 41.54 59.2618 41.5472 59.233 41.5472L59.3337 41.6623H59.2546L59.161 41.5472H59.1323V41.6623H59.0675V41.3601H59.2114V41.3529ZM59.1323 41.4105V41.4968H59.2114C59.2114 41.4968 59.2402 41.4968 59.2546 41.4968C59.2546 41.4896 59.2546 41.4752 59.2546 41.468C59.2546 41.4608 59.2546 41.4464 59.2546 41.4392C59.2402 41.4392 59.2258 41.4392 59.2114 41.4392L59.1323 41.4177V41.4105ZM55.3401 40.0073C55.376 39.4604 55.8438 39.0358 56.3907 39.0718C56.9375 39.1078 57.3621 39.5755 57.3261 40.1224C57.2973 40.6477 56.8584 41.0579 56.3331 41.0579C55.7862 41.0579 55.3401 40.6261 55.3329 40.0792C55.3329 40.0505 55.3329 40.0289 55.3329 40.0001L55.3401 40.0073ZM31.1189 40.0073V38.3594H30.3993V38.7624C30.1547 38.4458 29.7661 38.2659 29.3632 38.2803C28.4133 38.2803 27.6362 39.0502 27.6362 40.0073C27.6362 40.9643 28.4061 41.7343 29.3632 41.7343C29.7661 41.7487 30.1475 41.5688 30.3993 41.2522V41.6551H31.1189V40.0217V40.0073ZM28.4493 40.0073C28.4853 39.4604 28.953 39.0358 29.4999 39.0718C30.0468 39.1078 30.4713 39.5755 30.4353 40.1224C30.4065 40.6477 29.9748 41.0579 29.4423 41.0579C28.8954 41.0651 28.4421 40.6333 28.4349 40.0864C28.4349 40.0577 28.4349 40.0289 28.4349 40.0001L28.4493 40.0073Z" fill="#1A1A1A"/>
</svg>
