<svg width="32" height="32" viewBox="0 0 32 32" fill="none" xmlns="http://www.w3.org/2000/svg">
<path d="M14.4928 19.736C14.4181 19.9314 14.3982 20.122 14.3534 20.3031C14.1592 21.0512 14.0098 21.8088 13.8205 22.5569C13.6761 23.124 13.5218 23.6958 13.3126 24.2485C13.1333 24.7345 12.8893 25.2063 12.6453 25.6685C12.2668 26.3975 11.8037 27.0837 11.3007 27.7365C11.216 27.8461 11.1712 28.0367 10.9969 27.9938C10.7878 27.9414 10.8226 27.7365 10.8027 27.5745C10.6583 26.5405 10.6185 25.5065 10.6533 24.4677C10.6732 23.9245 10.6932 23.3717 10.8326 22.8428C10.977 22.3044 11.0816 21.7564 11.216 21.218C11.3107 20.8368 11.4003 20.446 11.4601 20.0553C11.5148 19.6884 11.6642 19.3358 11.724 18.9736C11.8037 18.4828 11.9481 18.0063 12.0527 17.5203C12.1473 17.0819 12.2668 16.6435 12.3614 16.2052C12.4262 15.905 12.4909 15.6095 12.5756 15.3141C12.6154 15.1711 12.5855 15.0187 12.5108 14.8614C12.3116 14.4421 12.2668 13.9799 12.1971 13.532C12.1075 12.9554 12.1573 12.3741 12.3017 11.8118C12.5258 10.9493 12.8843 10.1583 13.716 9.64372C14.6373 9.07668 15.937 9.33399 16.3454 10.368C16.6043 11.0351 16.5495 11.6927 16.4499 12.3693C16.3653 12.9554 16.181 13.5177 16.0117 14.08C15.8773 14.5136 15.7328 14.9472 15.6183 15.3856C15.5287 15.7429 15.3593 16.0956 15.3793 16.4768C15.3892 16.6864 15.3394 16.8913 15.3544 17.1105C15.4091 17.9635 15.9171 18.5019 16.6641 18.8259C17.0824 19.007 17.5654 19.0165 18.0535 18.8974C18.5664 18.7735 18.9897 18.5448 19.3881 18.2446C19.8413 17.9015 20.15 17.4441 20.4488 16.9866C20.7576 16.5149 20.9618 15.986 21.1361 15.457C21.3601 14.7614 21.5145 14.0418 21.6191 13.3128C21.6988 12.741 21.6988 12.1739 21.7137 11.6069C21.7386 10.5634 21.4597 9.58654 20.9369 8.69072C20.6132 8.13321 20.1301 7.69483 19.5773 7.30886C19.1142 6.9896 18.5963 6.82283 18.0933 6.61793C17.924 6.54646 17.7298 6.53693 17.5505 6.49404C16.9629 6.35585 16.3553 6.36538 15.7577 6.38921C15.0207 6.4178 14.3086 6.57028 13.6263 6.83712C12.9042 7.12302 12.2569 7.52805 11.6991 8.04744C11.1164 8.56682 10.6583 9.18628 10.2997 9.87721C10.0209 10.4204 9.81669 11.0018 9.72207 11.5878C9.60753 12.3169 9.51789 13.0507 9.66231 13.8036C9.75195 14.2849 9.91131 14.7375 10.1155 15.1759C10.2101 15.3808 10.3595 15.5666 10.5189 15.7334C10.7031 15.9288 10.733 16.1432 10.6832 16.3719C10.5985 16.7722 10.494 17.1725 10.3894 17.568C10.3097 17.8729 9.94617 18.0111 9.63741 17.8634C8.70119 17.4012 8.03388 16.7007 7.61556 15.7763C7.23211 14.9234 7.01299 14.0323 7.00801 13.0936C7.00303 12.436 6.96319 11.7737 7.12255 11.1304C7.24705 10.611 7.39147 10.1012 7.59066 9.60083C7.84464 8.96232 8.18327 8.38099 8.57171 7.81395C9.14938 6.96578 9.89637 6.26532 10.7529 5.67446C11.4053 5.22178 12.1174 4.85011 12.8694 4.5928C13.3425 4.43079 13.8305 4.31166 14.3285 4.21159C15.2199 4.04005 16.1113 3.97811 17.0077 4.0067C17.4908 4.02099 17.9638 4.13535 18.4419 4.20206C19.0893 4.29736 19.6769 4.53085 20.2646 4.77387C20.658 4.93588 21.0315 5.1503 21.39 5.38379C21.9577 5.7507 22.4657 6.18431 22.9189 6.67035C23.4567 7.24215 23.875 7.89019 24.2186 8.59065C24.3879 8.92897 24.5025 9.28634 24.6618 9.62943C24.7316 9.77714 24.7515 9.95821 24.7764 10.125C24.8212 10.4014 24.8561 10.6873 24.9158 10.9541C25.0403 11.5164 24.9955 12.0739 24.9756 12.6266C24.9606 13.0984 24.9208 13.5749 24.8063 14.0418C24.7515 14.261 24.7664 14.485 24.7067 14.7137C24.6071 15.0806 24.5174 15.4523 24.4128 15.8192C24.2535 16.391 24.0194 16.9342 23.7455 17.4584C23.1579 18.5924 22.381 19.5836 21.2705 20.3126C20.8771 20.5699 20.4687 20.7986 20.0255 20.9654C19.0495 21.3228 18.0286 21.48 16.9977 21.2847C16.0466 21.1036 15.2299 20.6605 14.6422 19.8838C14.6074 19.8218 14.5526 19.7885 14.4928 19.736Z" fill="#2A2E33"/>
</svg>
