<svg width="32" height="32" viewBox="0 0 32 32" fill="none" xmlns="http://www.w3.org/2000/svg">
<path d="M22.8634 8.81066C21.5663 7.96754 20.6299 6.61911 20.338 5.04708C20.2748 4.70727 20.2403 4.35784 20.2403 4H16.1001L16.0933 20.5362C16.0237 22.3879 14.4946 23.8742 12.6197 23.8742C12.0371 23.8742 11.4883 23.7291 11.0054 23.4755C9.89768 22.8944 9.13977 21.7371 9.13977 20.4055C9.13977 18.4929 10.701 16.9369 12.6197 16.9369C12.978 16.9369 13.3214 16.9958 13.6466 17.0972V12.8848C13.3101 12.8391 12.9683 12.8107 12.6197 12.8107C8.41845 12.8111 5 16.218 5 20.4055C5 22.975 6.28825 25.2486 8.25319 26.6235C9.49078 27.4895 10.9966 28 12.6201 28C16.8218 28 20.2403 24.5931 20.2403 20.4055V12.0204C21.8639 13.1821 23.8533 13.8666 26 13.8666V9.74033C24.8436 9.74033 23.7665 9.39772 22.8634 8.81066Z" fill="#2A2E33"/>
</svg>
