<svg width="160" height="48" viewBox="0 0 160 48" fill="none" xmlns="http://www.w3.org/2000/svg">
<rect width="160" height="48" rx="2" fill="white"/>
<path d="M24.2722 30.7642C24.9696 31.1188 25.6925 31.5616 25.6925 32.4628C25.6925 33.6324 24.6816 34.1026 23.6707 34.1183C22.8968 34.1301 21.9721 33.8127 21.259 33.5188L21.069 35.2977C21.9114 35.5739 22.6853 35.7738 23.4807 35.7992C25.718 35.8717 27.6576 34.8393 27.6576 32.3707C27.6576 30.1079 25.9786 29.4359 24.3368 28.617C23.7314 28.3153 22.9184 27.9039 22.9184 27.1104C22.9184 26.0956 23.8216 25.788 24.7012 25.788C25.4966 25.788 25.9178 25.9232 26.8857 26.3013L27.1521 24.5498C26.2646 24.2364 25.3791 24.1071 24.6385 24.1071C22.5991 24.1071 20.9534 25.1846 20.9534 27.2515C20.9534 29.4379 22.7284 29.9825 24.2722 30.7642Z" fill="white"/>
<path d="M33.993 27.8862L34.8138 29.8923H36.7025L33.993 23.8562L31.2815 29.8923H33.1682L33.993 27.8862Z" fill="white"/>
<path d="M35.3615 33.2991L33.9881 32.2411L31.5999 33.493L32.5951 31.2224L31.2492 29.9626L28.7258 35.5991H30.6615L35.3615 33.2991Z" fill="white"/>
<path d="M14.9072 35.7973C16.645 35.7973 17.7362 35.5093 18.4474 35.2664V29.387H14.4194V31.0366H16.5451V33.9635C16.1434 34.0693 15.5831 34.1183 14.9249 34.1183C12.7149 34.1183 10.9282 32.5216 10.9164 29.9512C10.9047 27.563 12.5464 25.786 15.0032 25.786C16.404 25.786 17.2112 26.0349 18.1614 26.6539L18.3161 24.7046C17.2856 24.348 16.5568 24.1071 14.9249 24.1071C11.4865 24.1071 8.95337 26.4228 8.95337 29.9061C8.95337 33.3895 11.3416 35.7992 14.9092 35.7992L14.9072 35.7973Z" fill="white"/>
<path d="M37.2736 35.5991H39.2543L36.7329 29.9626L35.387 31.2224L37.2736 35.5991Z" fill="white"/>
<path d="M6.3999 6.40002V41.6H41.5509V6.40002H6.3999ZM14.9242 34.1161C15.5824 34.1161 16.1427 34.0671 16.5444 33.9613V31.0343H14.4187V29.3847H18.4467V35.2641C17.7355 35.5071 16.6443 35.7951 14.9065 35.7951C11.3389 35.7951 8.95071 33.4892 8.95071 29.902C8.95071 26.3148 11.4858 24.1029 14.9222 24.1029C16.5542 24.1029 17.281 24.3439 18.3135 24.7004L18.1587 26.6498C17.2085 26.0307 16.4014 25.7819 15.0006 25.7819C12.5438 25.7819 10.902 27.5588 10.9138 29.947C10.9255 32.5155 12.7123 34.1141 14.9222 34.1141L14.9242 34.1161ZM24.3359 28.6128C25.9757 29.4318 27.6567 30.1037 27.6567 32.3666C27.6567 34.837 25.7171 35.8676 23.4797 35.7951C22.6843 35.7696 21.9124 35.5698 21.068 35.2935L21.2581 33.5146C21.9712 33.8085 22.8959 34.1259 23.6698 34.1141C24.6807 34.0985 25.6916 33.6283 25.6916 32.4586C25.6916 31.5574 24.9707 31.1147 24.2712 30.7601C22.7274 29.9784 20.9524 29.4337 20.9524 27.2473C20.9524 25.1804 22.5981 24.1029 24.6376 24.1029C25.3782 24.1029 26.2637 24.2302 27.1512 24.5456L26.8847 26.2971C25.9169 25.919 25.4957 25.7838 24.7003 25.7838C23.8206 25.7838 22.9175 26.0914 22.9175 27.1063C22.9175 27.8997 23.7305 28.3111 24.3359 28.6128ZM32.5937 31.2224L31.6004 33.4911L33.9867 32.2412L35.362 33.2991L30.662 35.5992H28.7263L31.2497 29.9627L32.5957 31.2224H32.5937ZM31.2791 29.8922L33.9906 23.856L36.7001 29.8922H34.8115L33.9906 27.886L33.1677 29.8922H31.2791ZM37.2721 35.5972L35.3874 31.2205L36.7334 29.9607L39.2548 35.5972H37.2721Z" fill="#005087"/>
<path d="M44.2833 7.83791C44.5165 7.82028 44.6751 7.65963 44.6751 7.43825C44.6751 7.30894 44.5811 7.17376 44.4596 7.12087C44.3617 7.08364 44.297 7.07581 44.0835 7.07581H43.6113V8.45309H43.8347V7.86926H43.9659C44.1364 7.86926 44.1991 7.92803 44.3754 8.23758L44.4969 8.45309H44.7672L44.6007 8.18468C44.4616 7.96134 44.3852 7.87906 44.2814 7.83791H44.2833ZM44.105 7.67726H43.8347V7.26388H44.0894C44.346 7.26388 44.44 7.31678 44.44 7.46959C44.44 7.62241 44.3362 7.67726 44.107 7.67726H44.105Z" fill="#005087"/>
<path d="M44.1756 6.46436C43.4664 6.46436 42.8923 7.03839 42.8923 7.74368C42.8923 8.44897 43.4664 9.02692 44.1756 9.02692C44.8848 9.02692 45.4549 8.45289 45.4549 7.74368C45.4549 7.03447 44.8809 6.46436 44.1756 6.46436ZM44.1756 8.81533C43.5839 8.81533 43.1039 8.33534 43.1039 7.74368C43.1039 7.15202 43.5839 6.67594 44.1756 6.67594C44.7672 6.67594 45.2433 7.15593 45.2433 7.74368C45.2433 8.33142 44.7633 8.81533 44.1756 8.81533Z" fill="#005087"/>
<path d="M48.4897 29.9269C48.4897 26.4671 50.4724 24.071 53.5835 24.071C55.9482 24.071 57.8839 25.4679 58.2326 27.6896H56.726C56.3773 26.1987 55.2018 25.3896 53.6482 25.3896C51.3638 25.3896 49.9983 27.1038 49.9983 29.9269C49.9983 32.7501 51.3462 34.529 53.6482 34.529C55.4251 34.529 56.6476 33.4985 56.916 31.4668H58.3756C57.9955 34.1802 56.2499 35.8455 53.5992 35.8455C50.4254 35.8455 48.4897 33.3535 48.4897 29.9269Z" fill="#6D6E71"/>
<path d="M58.8533 31.4828C58.8533 28.8497 60.4872 27.1825 62.8362 27.1825C65.1852 27.1825 66.7388 28.8164 66.7388 31.4182C66.7388 34.0199 65.0892 35.7812 62.7872 35.7812C60.4852 35.7812 58.8513 34.0513 58.8513 31.4809L58.8533 31.4828ZM65.2793 31.4201C65.2793 29.5629 64.3742 28.405 62.7872 28.405C61.2003 28.405 60.3128 29.6275 60.3128 31.4828C60.3128 33.3381 61.2493 34.5606 62.7872 34.5606C64.3252 34.5606 65.2793 33.2754 65.2793 31.4182V31.4201Z" fill="#6D6E71"/>
<path d="M74.6576 29.8959V35.5774H73.1981V30.1819C73.1981 29.0554 72.675 28.452 71.5641 28.452C70.4533 28.452 69.2308 29.0711 69.2308 31.0224V35.5774H67.7712V27.3902H69.1368V28.548C69.6912 27.6742 70.6767 27.1825 71.8815 27.1825C73.5958 27.1825 74.6576 28.166 74.6576 29.8959Z" fill="#6D6E71"/>
<path d="M78.2121 33.5613C78.2121 34.1648 78.4021 34.3548 79.0056 34.3548H80.0694V35.5773H78.5785C77.3089 35.5773 76.7545 35.0229 76.7545 33.7533V28.4539L75.532 28.5165V27.39L76.7545 27.4371V24.8823H78.2141V27.4527L80.087 27.39V28.5165L78.2141 28.4539V33.5633L78.2121 33.5613Z" fill="#6D6E71"/>
<path d="M85.132 27.1819V28.6102C84.9576 28.5945 84.7989 28.5945 84.6089 28.5945C83.5294 28.5945 82.3245 29.435 82.2599 31.1022V35.5769H80.8003V27.3896H82.1658V29.0392C82.6889 27.897 83.547 27.1663 84.8322 27.1663C84.9439 27.1663 85.0379 27.1663 85.1339 27.1819H85.132Z" fill="#6D6E71"/>
<path d="M92.9857 34.4979V35.5773H92.2079C91.3342 35.5773 90.86 35.1816 90.7954 34.3705C90.2723 35.164 89.2242 35.7831 87.8273 35.7831C86.162 35.7831 85.0825 34.9112 85.0825 33.4027C85.0825 32.0548 85.8916 31.1027 87.8743 30.848L89.9686 30.5776C90.3644 30.5306 90.5564 30.3405 90.5564 29.9585V29.6098C90.5564 28.7536 89.9843 28.3403 88.7148 28.3403C87.5413 28.3403 86.9535 28.7047 86.8575 29.7998H85.4136C85.5566 27.9915 86.7145 27.1334 88.8245 27.1334C90.9345 27.1334 92.0297 27.9582 92.0297 29.7508V33.7808C92.0297 34.3196 92.204 34.4939 92.7447 34.4939H92.9818L92.9857 34.4979ZM90.5583 32.7052V31.5631L88.1153 31.9275C86.9731 32.1018 86.5284 32.6092 86.5284 33.34C86.5284 34.1805 87.1475 34.6565 88.0996 34.6565C89.4162 34.6565 90.5583 33.7514 90.5583 32.7052Z" fill="#6D6E71"/>
<path d="M93.0652 31.5455C93.0652 28.7851 94.5718 27.1825 96.9365 27.1825C98.8251 27.1825 100.11 28.1817 100.396 30.0703H99.0151C98.7937 28.9594 98.0943 28.405 96.9521 28.405C95.3025 28.405 94.5248 29.5472 94.5248 31.4828C94.5248 33.4185 95.3809 34.5606 96.9365 34.5606C98.1433 34.5606 98.8094 33.8789 99.0308 32.719H100.396C100.11 34.639 98.9211 35.7812 96.8581 35.7812C94.5737 35.7812 93.0652 34.306 93.0652 31.5455Z" fill="#6D6E71"/>
<path d="M103.08 33.5613C103.08 34.1648 103.27 34.3548 103.873 34.3548H104.937V35.5773H103.446C102.177 35.5773 101.622 35.0229 101.622 33.7533V28.4539L100.4 28.5165V27.39L101.622 27.4371V24.8823H103.082V27.4527L104.955 27.39V28.5165L103.082 28.4539V33.5633L103.08 33.5613Z" fill="#6D6E71"/>
<path d="M117.931 24.2787V35.5771H116.456V30.2129H110.475V35.5771H109V24.2787H110.475V28.9277H116.456V24.2787H117.931Z" fill="#6D6E71"/>
<path d="M119.043 31.4828C119.043 28.8497 120.677 27.1825 123.026 27.1825C125.375 27.1825 126.929 28.8164 126.929 31.4182C126.929 34.0199 125.279 35.7812 122.977 35.7812C120.675 35.7812 119.041 34.0513 119.041 31.4809L119.043 31.4828ZM125.469 31.4201C125.469 29.5629 124.564 28.405 122.977 28.405C121.39 28.405 120.503 29.6275 120.503 31.4828C120.503 33.3381 121.439 34.5606 122.977 34.5606C124.515 34.5606 125.469 33.2754 125.469 31.4182V31.4201Z" fill="#6D6E71"/>
<path d="M127.959 24.2787H129.419V35.5771H127.959V24.2787Z" fill="#6D6E71"/>
<path d="M137.928 24.2787V35.5771H136.658V34.2762C136.166 35.1324 135.214 35.7515 134.025 35.7515C131.803 35.7515 130.456 33.8942 130.456 31.3571C130.456 28.82 131.915 27.2154 133.994 27.2154C135.058 27.2154 135.945 27.6602 136.468 28.3733V24.2787H137.928ZM136.547 31.3884C136.547 29.4528 135.563 28.4693 134.198 28.4693C132.832 28.4693 131.913 29.4841 131.913 31.3571C131.913 33.23 132.754 34.4996 134.166 34.4996C135.579 34.4996 136.547 33.326 136.547 31.3904V31.3884Z" fill="#6D6E71"/>
<path d="M146.558 31.831H140.418C140.465 33.6707 141.417 34.5758 142.893 34.5758C144.1 34.5758 144.797 33.9724 145.161 32.9419L146.494 33.1005C145.986 34.7991 144.636 35.7669 142.844 35.7669C140.401 35.7669 138.957 33.9743 138.957 31.4509C138.957 28.9276 140.369 27.1976 142.812 27.1976C145.112 27.1976 146.556 28.7375 146.556 31.2922V31.831H146.558ZM140.434 30.7829H145.195C145.005 29.2273 144.164 28.3868 142.83 28.3868C141.496 28.3868 140.577 29.1803 140.434 30.7829Z" fill="#6D6E71"/>
<path d="M151.922 27.1819V28.6102C151.747 28.5945 151.589 28.5945 151.399 28.5945C150.319 28.5945 149.114 29.435 149.05 31.1022V35.5769H147.59V27.3896H148.956V29.0392C149.479 27.897 150.337 27.1663 151.622 27.1663C151.734 27.1663 151.828 27.1663 151.924 27.1819H151.922Z" fill="#6D6E71"/>
</svg>
