<svg width="80" height="48" viewBox="0 0 80 48" fill="none" xmlns="http://www.w3.org/2000/svg">
<rect width="80" height="48" rx="2" fill="white"/>
<path d="M40.8959 20.6639C40.8639 23.3839 43.3199 24.9039 45.1759 25.8079C47.0799 26.7359 47.7199 27.3279 47.7119 28.1599C47.6879 30.4959 43.3679 30.4959 39.7679 28.8159L38.8799 32.9599C43.5599 35.1119 52.7999 34.1999 52.8319 27.4959C52.8479 22.5119 45.9359 22.2319 45.9839 19.9999C46.0399 17.6719 50.7119 18.2639 52.8799 19.2639L53.7359 15.2559C47.1359 12.8479 40.9359 15.7679 40.9039 20.6639" fill="#1A1E71"/>
<path d="M66.1608 14.7603H61.9849C61.0489 14.7603 60.2568 15.3043 59.9048 16.1443L52.5688 33.6563H57.6968L58.7208 30.8323H64.9928L65.5849 33.6563H70.1048L66.1608 14.7603ZM60.1288 26.9603L62.7048 19.8643L64.1849 26.9603H60.1288Z" fill="#1A1E71"/>
<path d="M34.6713 14.7603L30.6313 33.6643H35.5193L39.5593 14.7603H34.6713Z" fill="#1A1E71"/>
<path d="M27.4401 14.7603L22.3521 27.6243L20.2961 16.6883C20.0561 15.4643 19.1041 14.7603 18.0401 14.7603H9.7201L9.6001 15.3123C13.2001 16.0963 15.1041 16.6963 15.5841 18.5843L19.4801 33.6643H24.6481L32.5761 14.7603H27.4401Z" fill="#1A1E71"/>
</svg>
