<svg width="32" height="32" viewBox="0 0 32 32" fill="none" xmlns="http://www.w3.org/2000/svg">
<path d="M29.4149 9.96673C29.0927 8.79877 28.1439 7.87918 26.9393 7.56699C24.7559 7 16 7 16 7C16 7 7.24412 7 5.06068 7.56699C3.85607 7.87918 2.90734 8.79877 2.58514 9.96673C2 12.0837 2 16.5002 2 16.5002C2 16.5002 2 20.9168 2.58514 23.0333C2.90734 24.2012 3.85607 25.1208 5.06068 25.433C7.24412 26 16 26 16 26C16 26 24.7559 26 26.9393 25.433C28.1439 25.1208 29.0927 24.2012 29.4149 23.0333C30 20.9163 30 16.5002 30 16.5002C30 16.5002 30 12.0837 29.4149 9.96719V9.96673ZM13.1999 20.5716V12.4289L20.4741 16.5007L13.1999 20.572V20.5716Z" fill="#2A2E33"/>
</svg>
